<svg xmlns="http://www.w3.org/2000/svg" width="173" height="41" fill="none" xmlns:v="https://vecta.io/nano"><g clip-path="url(#A)"><path d="M8.025 8.328c.776 0 1.429.108 1.961.323.546.201.955.546 1.228 1.034s.409 1.156.409 2.004v7.391h-1.444l-.28-2.284-.129-.237v-4.87c0-.646-.151-1.106-.453-1.379-.287-.287-.848-.431-1.681-.431l-2.069.086-2.435.194-.172-1.358 1.595-.237 1.789-.172 1.681-.065zm2.737 4.288l-.022 1.379-5.021.022c-.503.014-.855.151-1.056.409-.201.244-.302.589-.302 1.034v.668c0 .546.129.948.388 1.207.259.244.675.366 1.25.366.402 0 .855-.072 1.358-.215.517-.158 1.034-.395 1.551-.711s.991-.718 1.422-1.207v1.358c-.158.201-.388.438-.69.711-.287.259-.639.517-1.056.776-.402.244-.855.453-1.358.625-.488.158-1.02.237-1.595.237-.618 0-1.164-.108-1.638-.323a2.68 2.68 0 0 1-1.121-.991c-.259-.445-.388-.984-.388-1.616v-1.142c0-.819.251-1.451.754-1.896.517-.46 1.235-.69 2.155-.69h5.366zm5.9-4.03v7.37c-.014.661.108 1.128.366 1.401s.69.409 1.293.409c.589 0 1.171-.136 1.745-.409.589-.287 1.293-.697 2.112-1.228l.237 1.271c-.819.646-1.616 1.135-2.392 1.465-.761.33-1.537.496-2.327.496-1.911 0-2.866-.962-2.866-2.887V8.586h1.832zm7.154 0V19.08h-1.465l-.172-1.982-.194-.323V8.586h1.832zm5.997-3.103v10.71c0 .503.108.862.323 1.078s.582.323 1.099.323h1.595l.215 1.401c-.23.058-.496.108-.797.151l-.884.086-.69.043c-.876 0-1.544-.244-2.004-.733s-.689-1.192-.689-2.112V5.483h1.832zm3.34 3.103v1.444h-7.068V8.694l2.069-.108h4.999zm6.677-.259c1.207 0 2.169.18 2.887.539.733.359 1.257.948 1.573 1.767.316.804.474 1.875.474 3.211s-.158 2.413-.474 3.232c-.316.805-.84 1.386-1.573 1.745-.718.359-1.681.539-2.887.539-1.192 0-2.155-.18-2.888-.539-.718-.359-1.243-.941-1.573-1.745-.316-.819-.474-1.896-.474-3.232s.158-2.406.474-3.211c.331-.819.855-1.408 1.573-1.767.733-.359 1.695-.539 2.888-.539zm0 1.551c-.761 0-1.365.122-1.81.366-.431.23-.74.632-.927 1.207s-.28 1.372-.28 2.392.093 1.817.28 2.392.496.984.927 1.228c.445.23 1.049.345 1.81.345s1.365-.115 1.81-.345c.445-.244.761-.654.948-1.228s.28-1.372.28-2.392-.093-1.817-.28-2.392-.503-.977-.948-1.207c-.445-.244-1.049-.366-1.81-.366zm11.299-1.551l1.465.043 1.53.108 1.422.172-.151 1.336-2.004-.065-1.983-.043c-.646-.014-1.156 0-1.53.043s-.646.158-.819.345c-.158.187-.237.503-.237.948 0 .546.129.905.388 1.077s.639.316 1.142.431l3.06.69c.833.201 1.444.51 1.832.927.402.417.603 1.07.603 1.961 0 .862-.165 1.508-.496 1.939-.316.431-.804.718-1.465.862s-1.501.215-2.521.215a47.93 47.93 0 0 1-1.681-.043c-.733-.029-1.544-.115-2.435-.259l.129-1.336 1.099.065 1.207.022H51c.79 0 1.408-.036 1.853-.108s.761-.208.948-.409c.187-.215.28-.532.28-.948 0-.517-.151-.862-.453-1.034s-.704-.316-1.207-.431l-3.017-.69c-.575-.144-1.034-.33-1.379-.56-.345-.244-.596-.553-.754-.927-.158-.388-.237-.869-.237-1.444 0-.819.144-1.437.431-1.853s.733-.697 1.336-.84 1.379-.208 2.327-.194zm11.934 0l1.056.043c.388.029.783.079 1.185.151a6.3 6.3 0 0 1 1.142.302l-.237 1.185-1.508-.086-1.336-.043c-.833 0-1.494.115-1.982.345s-.84.632-1.056 1.207-.323 1.372-.323 2.392.108 1.824.323 2.413c.215.575.567.977 1.056 1.207s1.149.345 1.982.345l.84-.022 1.099-.065 1.142-.129.194 1.228a8.88 8.88 0 0 1-1.745.409c-.618.086-1.235.129-1.853.129-1.207 0-2.176-.18-2.909-.539s-1.264-.941-1.595-1.745c-.316-.805-.474-1.882-.474-3.232s.165-2.428.496-3.232.862-1.379 1.595-1.724c.733-.359 1.702-.539 2.909-.539zm12.439 0c1.896 0 2.844.963 2.844 2.888v7.865h-1.853v-7.348c0-.704-.115-1.185-.345-1.444-.215-.273-.596-.409-1.142-.409-.646 0-1.293.151-1.939.453s-1.415.74-2.306 1.314l-.086-1.314c.819-.618 1.63-1.106 2.435-1.465s1.602-.539 2.392-.539zm-4.547-4.331l.022 4.159-.065 1.336c-.029.417-.079.783-.151 1.099l.194.323v8.167h-1.832V3.996h1.832zm15.128 4.331c1.207 0 2.169.18 2.888.539.733.359 1.257.948 1.573 1.767.316.804.474 1.875.474 3.211s-.158 2.413-.474 3.232c-.316.805-.84 1.386-1.573 1.745-.718.359-1.681.539-2.888.539-1.192 0-2.155-.18-2.888-.539-.718-.359-1.243-.941-1.573-1.745-.316-.819-.474-1.896-.474-3.232s.158-2.406.474-3.211c.33-.819.855-1.408 1.573-1.767.733-.359 1.695-.539 2.888-.539zm0 1.551c-.761 0-1.365.122-1.81.366-.431.23-.74.632-.927 1.207s-.28 1.372-.28 2.392.093 1.817.28 2.392.496.984.927 1.228c.445.23 1.049.345 1.81.345s1.365-.115 1.81-.345c.445-.244.761-.654.948-1.228s.28-1.372.28-2.392-.093-1.817-.28-2.392-.503-.977-.948-1.207c-.445-.244-1.049-.366-1.81-.366zm12.247-1.551c1.207 0 2.169.18 2.887.539.733.359 1.257.948 1.573 1.767.316.804.474 1.875.474 3.211s-.158 2.413-.474 3.232c-.316.805-.84 1.386-1.573 1.745-.718.359-1.681.539-2.887.539-1.192 0-2.155-.18-2.887-.539-.718-.359-1.243-.941-1.573-1.745-.316-.819-.474-1.896-.474-3.232s.158-2.406.474-3.211c.33-.819.855-1.408 1.573-1.767.733-.359 1.695-.539 2.887-.539zm0 1.551c-.761 0-1.365.122-1.81.366-.431.23-.74.632-.927 1.207s-.28 1.372-.28 2.392.093 1.817.28 2.392.496.984.927 1.228c.445.23 1.049.345 1.81.345s1.365-.115 1.81-.345c.445-.244.761-.654.948-1.228s.28-1.372.28-2.392-.093-1.817-.28-2.392-.503-.977-.948-1.207c-.446-.244-1.049-.366-1.81-.366zm9.661-5.883l-.021 12.196c0 .46.122.812.366 1.056.258.23.618.345 1.077.345h1.013l.216 1.401c-.13.058-.317.108-.561.151a5.7 5.7 0 0 1-.732.086l-.625.043c-.776 0-1.401-.23-1.875-.69-.46-.46-.69-1.12-.69-1.982V3.996h1.832zm5.622 12.541c.258 0 .438.05.538.151s.151.28.151.539v1.164c0 .259-.05.438-.151.539s-.28.151-.538.151h-.604c-.244 0-.424-.05-.539-.151-.1-.101-.15-.28-.15-.539v-1.164c0-.259.05-.438.15-.539.115-.101.295-.151.539-.151h.604z" fill="#fff"/><path d="M121.985 8.241l1.186.043c.431.029.869.086 1.314.172a5.67 5.67 0 0 1 1.207.366l-.302 1.638-1.595-.065-1.357-.021c-.733 0-1.315.101-1.745.302-.417.187-.719.532-.906 1.034-.186.488-.28 1.178-.28 2.069s.094 1.587.28 2.09c.187.488.489.833.906 1.034.43.201 1.012.302 1.745.302l.84-.021 1.142-.065 1.207-.108.259 1.681c-.561.23-1.185.395-1.875.496s-1.372.151-2.047.151c-1.264 0-2.277-.18-3.038-.539s-1.315-.941-1.66-1.745c-.33-.819-.495-1.911-.495-3.275s.172-2.449.517-3.254c.345-.819.898-1.401 1.659-1.745.761-.359 1.774-.539 3.038-.539zm8.663-4.245l-.022 11.895c0 .402.115.711.345.926.23.201.56.302.991.302h.927l.302 1.832c-.158.072-.381.136-.668.194a5.46 5.46 0 0 1-.862.108l-.755.043c-.876 0-1.573-.237-2.09-.711s-.775-1.156-.775-2.047V3.996h2.607zm8.952 4.245c1.293 0 2.32.18 3.081.539.776.359 1.329.948 1.659 1.767.345.819.518 1.903.518 3.254s-.173 2.435-.518 3.254c-.33.804-.883 1.393-1.659 1.767-.761.359-1.788.539-3.081.539-1.264 0-2.284-.18-3.06-.539-.762-.373-1.315-.962-1.659-1.767-.345-.819-.518-1.903-.518-3.254s.173-2.435.518-3.254.897-1.408 1.659-1.767c.776-.359 1.796-.539 3.06-.539zm0 1.982c-.632 0-1.135.108-1.509.323-.359.201-.617.56-.775 1.077s-.237 1.243-.237 2.176.079 1.659.237 2.176.416.876.775 1.077c.374.201.877.302 1.509.302.646 0 1.156-.101 1.53-.302s.632-.56.775-1.077c.158-.517.237-1.243.237-2.176s-.079-1.659-.237-2.176c-.143-.517-.402-.876-.775-1.077-.374-.215-.884-.323-1.53-.323zM149.858 8.5v7.154c-.014.532.087.912.302 1.142.23.23.596.345 1.099.345s1.006-.108 1.509-.323 1.113-.539 1.831-.97l.259 1.551c-.805.646-1.581 1.135-2.328 1.465a5.69 5.69 0 0 1-2.327.496c-1.968 0-2.952-.97-2.952-2.909V8.5h2.607zm7.09 0v10.58h-2.069l-.28-2.047-.258-.302V8.5h2.607zm6.508-.259a7.5 7.5 0 0 1 2.111.302 5.14 5.14 0 0 1 1.875.948l-.172 1.314-1.509-.409a5.95 5.95 0 0 0-1.486-.172c-.518 0-.934.093-1.25.28-.302.172-.532.51-.69 1.013-.143.503-.215 1.236-.215 2.198 0 .919.072 1.63.215 2.133.144.488.366.833.668 1.034.302.187.697.28 1.185.28.388 0 .733-.043 1.035-.129.301-.101.61-.244.926-.431l1.099-.754.216 1.465c-.489.56-1.092 1.041-1.81 1.444-.704.388-1.523.582-2.457.582-1.35 0-2.313-.474-2.887-1.422-.575-.962-.862-2.356-.862-4.18 0-1.393.143-2.485.431-3.275.301-.805.747-1.372 1.336-1.702.603-.345 1.35-.517 2.241-.517zm6.119-4.245V19.08h-2.047l-.28-1.896-.28-.216V9.901l.129-.302a12.25 12.25 0 0 1-.107-1.25l-.022-1.314V3.996h2.607z" fill="#c6ef36"/><path d="M8.251 29.069v6.835h-.888v-6.835h.888zm-4.806 0v6.835h-.874v-6.835h.874zm4.045 0l-.014.733H3.375v-.733H7.49zm8.361 0v.719h-2.438c-.31 0-.535.07-.676.211-.132.141-.221.371-.268.691l-.169 1.339-.211 1.339c-.084.423-.202.808-.352 1.156a2.34 2.34 0 0 1-.423.733 2.03 2.03 0 0 1-.634.493c-.244.122-.526.197-.846.225l-.113-.691a2.96 2.96 0 0 0 .592-.268c.16-.103.287-.221.38-.352a1.94 1.94 0 0 0 .254-.423c.113-.254.202-.54.268-.86l.183-1.001.127-.986.099-.831c.066-.489.226-.86.479-1.113s.644-.381 1.17-.381h2.579zm.183 0v6.835h-.902v-6.835h.902zm5.577-.169c.47 0 .864.071 1.184.211a1.43 1.43 0 0 1 .747.662c.169.301.254.709.254 1.226v4.904h-.705l-.141-1.494-.056-.127V31c0-.432-.099-.761-.296-.986s-.582-.338-1.155-.338l-1.437.056-1.592.141-.085-.662 1.001-.141 1.127-.113 1.156-.056zm1.719 2.833l-.014.676-3.34.028c-.357.009-.62.108-.789.296-.16.179-.24.432-.24.761v.592c0 .385.099.672.296.86s.493.282.888.282c.301.009.634-.042 1.001-.155s.723-.277 1.071-.493c.357-.216.672-.47.944-.761v.691a2.53 2.53 0 0 1-.479.465 5.22 5.22 0 0 1-.733.493 4.28 4.28 0 0 1-.916.395c-.329.103-.672.155-1.029.155-.395 0-.742-.071-1.043-.211-.291-.141-.517-.348-.676-.62-.15-.282-.226-.62-.226-1.015v-.789c0-.526.155-.93.465-1.212.319-.291.766-.437 1.339-.437h3.481zm5.452-2.664v6.835h-.888v-6.835h.888zm2.565 0v.747h-6.032v-.747h6.032zm5.417-.169c1.015 0 1.823.122 2.424.367.611.235 1.052.615 1.325 1.141s.409 1.221.409 2.086c0 .855-.136 1.55-.409 2.086-.273.526-.714.907-1.325 1.141-.601.235-1.409.352-2.424.352s-1.827-.117-2.438-.352-1.052-.615-1.325-1.141c-.272-.536-.409-1.231-.409-2.086 0-.864.136-1.559.409-2.086s.714-.907 1.325-1.141c.611-.244 1.423-.367 2.438-.367zm-.014.775c-.808 0-1.456.085-1.945.254-.479.169-.827.46-1.043.874-.207.404-.31.968-.31 1.691 0 .714.103 1.278.31 1.691.216.404.564.691 1.043.86.489.169 1.137.254 1.945.254.817 0 1.466-.085 1.945-.254s.822-.456 1.029-.86c.216-.413.324-.977.324-1.691 0-.723-.108-1.287-.324-1.691-.207-.413-.55-.705-1.029-.874s-1.127-.254-1.945-.254zm.437-3.636v3.03l-.028.225v6.314l.028.24v2.931h-.845v-2.931l.028-.24v-6.314l-.028-.225v-3.03h.845zm8.582 2.861c.77 0 1.381.117 1.832.352.46.235.789.615.987 1.141.207.526.31 1.226.31 2.1s-.103 1.574-.31 2.1c-.197.526-.526.907-.987 1.142-.451.235-1.062.352-1.832.352s-1.386-.117-1.846-.352-.794-.615-1.001-1.142c-.197-.526-.296-1.226-.296-2.1s.099-1.574.296-2.1c.207-.526.54-.907 1.001-1.141s1.076-.352 1.846-.352zm0 .775c-.545 0-.982.085-1.311.254-.319.169-.55.46-.691.874-.141.404-.211.968-.211 1.691 0 .714.07 1.278.211 1.691s.371.705.691.874c.329.169.766.254 1.311.254s.977-.085 1.296-.254.55-.46.691-.874.211-.977.211-1.691c0-.723-.07-1.287-.211-1.691-.141-.413-.371-.705-.691-.874s-.752-.254-1.296-.254zm8.827-.775c.864 0 1.48.296 1.846.888s.55 1.499.55 2.72c0 .874-.089 1.574-.268 2.1-.178.517-.456.893-.831 1.127-.376.225-.855.338-1.437.338a5.21 5.21 0 0 1-1.367-.183c-.442-.132-.883-.319-1.325-.564l.042-.564 1.296.38a4.64 4.64 0 0 0 1.156.141c.432 0 .78-.08 1.043-.24.263-.169.456-.456.578-.86.131-.404.197-.963.197-1.677 0-.695-.061-1.245-.183-1.649-.113-.413-.296-.709-.55-.888-.244-.188-.573-.282-.986-.282-.404 0-.803.099-1.198.296-.385.197-.836.503-1.353.916l-.07-.648c.282-.282.578-.521.888-.719.319-.207.644-.362.972-.465a3.15 3.15 0 0 1 1.001-.169zm-2.917.169l.113 1.367.056.127v4.51l-.056.169.056.733v.733 2.072h-.888v-9.71h.719zm14.87 0a.32.32 0 0 1 .366.366l.31 6.468h-.832l-.296-6.13h-.254l-2.029 5.13c-.028.094-.07.169-.127.225-.056.047-.136.07-.24.07h-.775c-.103 0-.183-.023-.24-.07-.056-.056-.099-.132-.127-.225l-2.029-5.13h-.254l-.282 6.13h-.832l.31-6.468a.32.32 0 0 1 .366-.366h.986c.103 0 .183.028.239.085.056.047.094.122.113.226l1.677 4.242.183.493.155.479h.24l.169-.493.169-.479 1.663-4.242c.066-.207.193-.31.38-.31h.986zm6.106-.169c.47 0 .864.071 1.184.211a1.43 1.43 0 0 1 .747.662c.169.301.254.709.254 1.226v4.904h-.705l-.141-1.494-.056-.127V31c0-.432-.099-.761-.296-.986s-.582-.338-1.156-.338l-1.437.056-1.592.141-.085-.662 1.001-.141 1.127-.113 1.156-.056zm1.719 2.833l-.014.676-3.34.028c-.357.009-.62.108-.789.296-.16.179-.24.432-.24.761v.592c0 .385.099.672.296.86s.493.282.888.282c.301.009.634-.042 1.001-.155s.723-.277 1.071-.493c.357-.216.672-.47.944-.761v.691a2.53 2.53 0 0 1-.479.465 5.22 5.22 0 0 1-.733.493 4.28 4.28 0 0 1-.916.395c-.329.103-.672.155-1.029.155-.395 0-.742-.071-1.043-.211-.291-.141-.517-.348-.676-.62-.15-.282-.226-.62-.226-1.015v-.789c0-.526.155-.93.465-1.212.319-.291.766-.437 1.339-.437h3.481zm11.196-2.664v.719h-2.41c-.573 0-.879.296-.916.888-.037.667-.113 1.306-.225 1.917a9.6 9.6 0 0 1-.493 1.747c-.216.545-.512 1.066-.888 1.564h-.789a7.39 7.39 0 0 0 .888-1.677c.216-.592.376-1.198.479-1.818s.174-1.24.211-1.86c.028-.489.174-.855.437-1.099.263-.254.648-.381 1.156-.381h2.551zm-5.327 6.764l-.099 2.1h-.592v-2.1h.691zm6.37-.648v.719h-7.06v-.719h7.06zm0 .648v2.1h-.592l-.099-2.1h.691zm-.874-6.764v6.835h-.86v-6.835h.86zm7.909 0v.719h-2.438c-.31 0-.535.07-.676.211-.132.141-.221.371-.268.691l-.169 1.339-.211 1.339a5.75 5.75 0 0 1-.352 1.156c-.103.282-.244.526-.423.733s-.39.371-.634.493-.526.197-.846.225l-.113-.691c.244-.085.442-.174.592-.268a1.38 1.38 0 0 0 .38-.352 1.94 1.94 0 0 0 .254-.423c.113-.254.202-.54.268-.86l.183-1.001.127-.986.099-.831c.066-.489.226-.86.479-1.113s.644-.381 1.17-.381h2.579zm.183 0v6.835h-.902v-6.835h.902zm4.619-.042l1.226.014.888.014.831.056-.169.691c-.113-.019-.423-.033-.93-.042l-1.818-.014c-.62 0-1.038.122-1.254.366-.207.235-.31.573-.31 1.015 0 .498.118.869.352 1.113s.672.366 1.311.366h2.663l.028.676-.493.014h-.93-1.311c-.385 0-.695.071-.93.211a.95.95 0 0 0-.465.578l-.535 1.818h-.93l.62-2.029a1.07 1.07 0 0 1 .31-.465c.141-.132.301-.226.479-.282a3.1 3.1 0 0 1 .564-.141v-.042c-.385-.038-.695-.141-.93-.31a1.51 1.51 0 0 1-.521-.662c-.103-.282-.155-.606-.155-.972 0-.301.038-.568.113-.803.075-.244.207-.451.395-.62.188-.178.437-.315.747-.409.319-.094.705-.141 1.156-.141zm2.945.084v6.793h-.874v-6.793h.874zm8.748-.211c.469 0 .864.071 1.183.211a1.43 1.43 0 0 1 .747.662c.169.301.254.709.254 1.226v4.904h-.705l-.141-1.494-.056-.127V31c0-.432-.099-.761-.296-.986s-.582-.338-1.156-.338l-1.437.056-1.592.141-.085-.662 1.001-.141 1.127-.113 1.156-.056zm1.719 2.833l-.014.676-3.34.028c-.357.009-.62.108-.789.296-.16.179-.24.432-.24.761v.592c0 .385.099.672.296.86s.493.282.888.282c.301.009.634-.042 1-.155s.724-.277 1.071-.493a4.41 4.41 0 0 0 .945-.761v.691a2.55 2.55 0 0 1-.479.465c-.207.169-.451.334-.733.493-.273.16-.578.291-.916.395-.329.103-.672.155-1.029.155-.395 0-.742-.071-1.043-.211a1.54 1.54 0 0 1-.676-.62c-.151-.282-.226-.62-.226-1.015v-.789c0-.526.155-.93.465-1.212.32-.291.766-.437 1.339-.437h3.481zm5.452-2.734c.705 0 1.264.052 1.677.155s.709.287.888.55c.188.263.282.639.282 1.127 0 .479-.118.846-.353 1.099-.225.244-.601.39-1.127.437v.042c.639.047 1.085.225 1.339.535.253.301.38.723.38 1.268 0 .47-.089.836-.268 1.099-.178.254-.465.432-.859.536s-.921.155-1.579.155c-.46 0-.864-.005-1.211-.014a14.07 14.07 0 0 1-.931-.028l-.902-.042.17-.662 1.014.028h1.748c.469 0 .845-.033 1.127-.099.282-.075.484-.202.606-.38s.183-.432.183-.761c0-.507-.15-.855-.451-1.043-.291-.188-.808-.282-1.55-.282h-2.692v-.648h2.692c.442-.009.794-.042 1.057-.099.263-.066.451-.183.564-.352.122-.169.183-.409.183-.719 0-.319-.066-.564-.197-.733-.122-.169-.334-.282-.634-.338-.301-.066-.696-.099-1.184-.099l-1.057-.014-.832.014-.577.028-.17-.676.79-.056.817-.014 1.057-.014zm-1.818.085v6.835h-.846v-6.835h.846zm9.484-.014v6.835h-.888v-6.835h.888zm2.564 0v.747h-6.031v-.747h6.031zm4.252-.169c.77 0 1.381.117 1.832.352.46.235.789.615.986 1.141.207.526.31 1.226.31 2.1s-.103 1.574-.31 2.1c-.197.526-.526.907-.986 1.142-.451.235-1.062.352-1.832.352s-1.386-.117-1.847-.352-.793-.615-1-1.142c-.197-.526-.296-1.226-.296-2.1s.099-1.574.296-2.1c.207-.526.54-.907 1-1.141s1.076-.352 1.847-.352zm0 .775c-.545 0-.982.085-1.311.254-.32.169-.55.46-.691.874-.141.404-.211.968-.211 1.691 0 .714.07 1.278.211 1.691s.371.705.691.874c.329.169.766.254 1.311.254s.977-.085 1.296-.254.55-.46.691-.874.211-.977.211-1.691c0-.723-.071-1.287-.211-1.691-.141-.413-.372-.705-.691-.874s-.752-.254-1.296-.254zm6.065-.606v6.835h-.888v-6.835h.888zm7.37 6.116v.719h-7.469v-.719h7.469zm-3.41-6.116v6.835h-.832v-6.835h.832zm4.002 0v6.835h-.86v-6.835h.86zm7.918 0l-.437 1.029c-.131.319-.272.611-.422.874a3.44 3.44 0 0 1-.48.691 2.52 2.52 0 0 1-.591.465c-.216.113-.47.178-.761.197v.042c.31.019.577.085.803.197.235.113.441.272.62.479a3.24 3.24 0 0 1 .507.719 9.11 9.11 0 0 1 .451.958l.508 1.184h-.945l-.493-1.142c-.141-.348-.286-.648-.437-.902s-.314-.465-.493-.634a1.66 1.66 0 0 0-.62-.395c-.226-.085-.493-.127-.803-.127l.014-.705c.357 0 .662-.07.916-.211a2.12 2.12 0 0 0 .676-.62c.198-.263.376-.568.536-.916l.521-1.184h.93zm-4.636 0v2.128c0 .197-.014.39-.042.578l-.085.55.085.578c.028.179.042.352.042.522v2.48h-.902v-6.835h.902zm1.48 2.931v.705h-1.776V32h1.776zm7.841-3.1c.77 0 1.381.117 1.832.352.46.235.789.615.986 1.141.207.526.31 1.226.31 2.1s-.103 1.574-.31 2.1c-.197.526-.526.907-.986 1.142-.451.235-1.062.352-1.832.352s-1.386-.117-1.847-.352-.793-.615-1-1.142c-.197-.526-.296-1.226-.296-2.1s.099-1.574.296-2.1c.207-.526.54-.907 1-1.141s1.076-.352 1.847-.352zm0 .775c-.545 0-.982.085-1.311.254-.32.169-.55.46-.691.874-.141.404-.211.968-.211 1.691 0 .714.07 1.278.211 1.691s.371.705.691.874c.329.169.766.254 1.311.254s.977-.085 1.296-.254.55-.46.691-.874.211-.977.211-1.691c0-.723-.071-1.287-.211-1.691-.141-.413-.372-.705-.691-.874s-.752-.254-1.296-.254zm10.309-.606v.719h-2.438c-.31 0-.536.07-.677.211-.131.141-.22.371-.267.691l-.169 1.339-.212 1.339a5.73 5.73 0 0 1-.352 1.156c-.103.282-.244.526-.423.733s-.39.371-.634.493a2.33 2.33 0 0 1-.846.225l-.112-.691c.244-.085.441-.174.592-.268a1.39 1.39 0 0 0 .38-.352c.103-.131.188-.273.254-.423a4.2 4.2 0 0 0 .267-.86l.184-1.001.126-.986.099-.831c.066-.489.226-.86.479-1.113s.644-.381 1.17-.381h2.579zm.183 0v6.835h-.902v-6.835h.902z" fill="#fff"/></g><defs><clipPath id="A"><path fill="#fff" transform="translate(0 .61)" d="M0 0h173v39.781H0z"/></clipPath></defs></svg>